<svg width="34" height="11" fill="currentColor" xmlns="http://www.w3.org/2000/svg"><g clip-path="url(#a)"><path d="M7.793 8.39c0 .653-.505 1.224-1.164 1.224-.308 0-.603-.13-.821-.36a1.26 1.26 0 0 1-.342-.863c0-.653.504-1.223 1.163-1.223.582.041 1.164.571 1.164 1.223zm1.318 0c0 .344-.063.684-.187 1a2.614 2.614 0 0 1-.538.848c-.23.243-.504.435-.806.566-.301.13-.625.197-.95.196a2.369 2.369 0 0 1-.951-.196 2.468 2.468 0 0 1-.807-.566 2.614 2.614 0 0 1-.537-.847 2.718 2.718 0 0 1-.187-1 2.718 2.718 0 0 1 .187-1c.124-.317.307-.605.537-.847.231-.243.505-.435.807-.566.301-.13.624-.197.95-.196 1.357.041 2.482 1.182 2.482 2.609zm-.93 0c0-.896-.698-1.63-1.552-1.63-.853 0-1.55.734-1.55 1.63 0 .898.697 1.632 1.55 1.632.853.082 1.551-.693 1.551-1.631zm16.165-5.502v-1.06l-.853-.49-.736 1.59c-.04 0 1.589-.04 1.589-.04zm6.125 5.503c.001.343-.062.683-.187 1a2.612 2.612 0 0 1-.537.847c-.23.243-.505.435-.806.566-.302.13-.625.197-.951.196a2.37 2.37 0 0 1-.951-.196 2.468 2.468 0 0 1-.806-.566 2.612 2.612 0 0 1-.538-.847 2.717 2.717 0 0 1-.186-1 2.717 2.717 0 0 1 .186-1c.125-.317.307-.605.538-.847.23-.243.505-.435.806-.566.302-.13.625-.197.95-.196 1.397.041 2.482 1.182 2.482 2.609zm-.892 0a1.68 1.68 0 0 0-.455-1.152 1.519 1.519 0 0 0-1.096-.479c-.852 0-1.55.734-1.55 1.63 0 .898.697 1.632 1.55 1.632.854.082 1.551-.693 1.551-1.631zm-1.55-1.222c-.62 0-1.163.53-1.163 1.223 0 .652.504 1.223 1.163 1.223.62 0 1.163-.53 1.163-1.223-.039-.653-.543-1.223-1.163-1.223zM34 5.945l-.31 2.65-2.752 1.223c.078-.408.155-.856.155-1.182 0-1.753-1.357-3.302-3.024-3.302-1.668 0-3.024 1.386-3.024 3.139 0 .326.038.856.155 1.182l-.155.162H9.537c.073-.375.112-.757.116-1.14 0-1.917-1.356-3.384-3.024-3.384-1.667 0-3.024 1.712-3.024 3.465 0 .326.039.652.117 1.06h-.155l-1.59-.408-1.86-.937L0 7.169l.31-.408-.077-1.1L1.24 4.64l.969-.407c2.365-.938 9.033-1.55 9.033-1.55S15.779.525 17.252.118c.038-.04.542-.082.542-.082v.734c-1.55.448-4.186 1.753-5.815 2.731-4.497.081-7.52.855-7.52.855s2.403.04 4.962-.244c5.737-.49 15.895-.653 18.53-1.02.466-.081 1.202-.203 1.202-.203l4.574.611-.155.775.194 1.223.233.448zM3.412 4.682s-1.318.326-1.706.53C1.046 5.619.698 6.72.698 6.72l1.511-.571 1.203-1.467z" fill="#000"/></g><defs><clipPath id="a"><path d="M0 0h34v11H0z"/></clipPath></defs></svg>