<svg width="33" height="11" fill="none" xmlns="http://www.w3.org/2000/svg"><g clip-path="url(#a)" fill="#000"><path d="M5.32 6.226a2.273 2.273 0 0 0-2.288 2.288 2.273 2.273 0 0 0 2.288 2.288 2.273 2.273 0 0 0 2.288-2.288C7.571 7.24 6.558 6.226 5.32 6.226zm0 3.714a1.465 1.465 0 0 1-1.463-1.463c0-.787.638-1.463 1.463-1.463.825 0 1.463.638 1.463 1.463-.037.825-.675 1.463-1.463 1.463z"/><path d="M5.32 9.564a1.05 1.05 0 1 0 0-2.1 1.05 1.05 0 0 0 0 2.1z"/><path d="M32.475 5.589 32.1 3.9l.188-.637-3.001-.488S24.711.488 23.811.376C20.85 0 17.098-.15 14.472.413c0 0-1.238.45-4.726 2.888 0 0-5.7.375-7.801 1.163l-.863.338-.9 1.275.075.9-.263.3s.188 1.65.15 1.65l2.4.413h.076a3.126 3.126 0 0 1-.113-.825A2.833 2.833 0 0 1 5.32 5.702a2.833 2.833 0 0 1 2.813 2.813c0 .3-.038.562-.113.825h16.015a2.926 2.926 0 0 1-.112-.825 2.833 2.833 0 0 1 2.813-2.813 2.833 2.833 0 0 1 2.812 2.813c0 .187 0 .337-.037.487h.112l3.189-.525.187-2.438c.001 0-.224-.188-.524-.45zM2.132 6.15.858 6.64s.263-.9.863-1.275c.337-.188 1.5-.45 1.5-.45L2.132 6.151zM26.7 3.788c-2.813.3-6.3.225-12.79.563-2.362.113-4.238.188-4.538.225-1.275.113-3.825.15-4.613.263.975-.375 3.338-.6 5.25-.676 2.139-1.575 4.052-2.775 4.614-2.925.6-.188 1.913-.45 3.676-.413l-.263 3c.375 0 1.088-.037 1.125-.037L19.423.9c1.05.038 3.375.15 4.426.375l-.188 2.363c.113 0 .6 0 .787-.038l.188-2.138c1.988.9 3.226 2.25 3.226 2.25 0-.036-.45.001-1.163.076z"/><path d="M26.7 6.226a2.273 2.273 0 0 0-2.289 2.288 2.273 2.273 0 0 0 2.288 2.288 2.273 2.273 0 0 0 2.288-2.288 2.273 2.273 0 0 0-2.288-2.288zm0 3.714a1.465 1.465 0 0 1-1.464-1.463c0-.787.638-1.463 1.463-1.463.788 0 1.463.638 1.463 1.463 0 .825-.675 1.463-1.463 1.463z"/><path d="M26.7 9.564a1.05 1.05 0 1 0 0-2.1 1.05 1.05 0 0 0 0 2.1z"/></g><defs><clipPath id="a"><path fill="#fff" d="M0 0h33v10.802H0z"/></clipPath></defs></svg>