<svg width="34" height="13" fill="currentColor" xmlns="http://www.w3.org/2000/svg"><g clip-path="url(#a)" fill="#000"><path d="M6.143 7.424a2.773 2.773 0 0 0-2.782 2.788A2.773 2.773 0 0 0 6.143 13a2.773 2.773 0 0 0 2.782-2.788 2.774 2.774 0 0 0-2.782-2.788zm0 4.57a1.816 1.816 0 0 1-1.815-1.82 1.816 1.816 0 1 1 3.631 0c0 1.045-.811 1.82-1.816 1.82z"/><path d="M6.143 8.78c-.772 0-1.39.619-1.39 1.393 0 .775.617 1.394 1.39 1.394.773 0 1.391-.619 1.391-1.394.039-.735-.618-1.394-1.39-1.394z"/><path d="m33.498 6.534-.039-1.588-1.623-3.678.31-.349-.078-.464C29.132.068 15.145-.32 14.218.416c-1.854 1.471-3.631 3.214-3.631 3.214l-8.81 1.162-1.159.929L0 7.037l.348.62-.31.231.425 2.169 2.435.348a4.764 4.764 0 0 1-.077-.735c0-1.82 1.506-3.33 3.322-3.33 1.817 0 3.323 1.51 3.323 3.33 0 .348-.077.735-.154 1.045h15.3c0-.039 0-.116-.039-.155a3.033 3.033 0 0 1-.116-.852 3.367 3.367 0 0 1 3.361-3.368 3.367 3.367 0 0 1 3.362 3.368v.387l2.627-.774L34 7.27l-.502-.735zm-31.566.503-1.082.31.618-1.316 1.12-.426.812.503-1.468.929zm2.859-1.51s1.236-.387 5.95-.658c2.048-1.936 3.4-3.253 4.057-3.717 1.236-.387 4.984-.233 4.984-.233l-.27 3.563c.502-.039 1.042-.039 1.545-.078l.231-3.523h5.255l.85 3.33h.734L27.277.92l2.82.155 1.237 2.323-.193.89s-.541.078-1.313.155c-.812.078-1.932.155-3.284.194 0 0-12.132.387-15.184.62a94.5 94.5 0 0 1-6.569.27z"/><path d="M27.819 7.424a2.773 2.773 0 0 0-2.782 2.788A2.773 2.773 0 0 0 27.819 13a2.773 2.773 0 0 0 2.782-2.788 2.774 2.774 0 0 0-2.782-2.788zm0 4.57a1.816 1.816 0 0 1-1.816-1.82 1.816 1.816 0 1 1 3.631 0c0 1.045-.811 1.82-1.816 1.82z"/><path d="M27.819 8.78c-.773 0-1.392.619-1.392 1.393 0 .775.619 1.394 1.392 1.394.773 0 1.39-.619 1.39-1.394.039-.735-.618-1.394-1.39-1.394z"/></g><defs><clipPath id="a"><path d="M0 0h34v13H0z"/></clipPath></defs></svg>