<svg width="86" height="8" fill="currentColor" xmlns="http://www.w3.org/2000/svg"><path d="M86 3.626a.476.476 0 0 0-.148-.332.513.513 0 0 0-.345-.142h-8.113a.513.513 0 0 0-.346.142.476.476 0 0 0-.147.332v.679c0 .254.23.49.493.49h5.104c.334 0 .317.154.317.527v.085c0 .371.017.456-.317.456H72.131a.513.513 0 0 1-.345-.142.476.476 0 0 1-.147-.332V2.507c0-.254.21-.474.493-.474h13.376a.514.514 0 0 0 .345-.142.477.477 0 0 0 .147-.332V.475a.476.476 0 0 0-.148-.334.513.513 0 0 0-.346-.141H69.035a.513.513 0 0 0-.346.142.476.476 0 0 0-.147.333v7.049c0 .255.228.475.492.475h16.473A.495.495 0 0 0 86 7.524V3.559M59.495 5.576c-.23.134-.387.27-.668.27H56.73c-.263 0-.439-.136-.668-.27l-4.03-2.458c-.23-.136-.422-.034-.422.22v4.186c0 .255-.23.475-.493.475h-2.094a.513.513 0 0 1-.347-.142.476.476 0 0 1-.147-.333V.474c0-.254.23-.474.493-.474h2.254c.263 0 .439.119.668.255l5.493 3.421a.627.627 0 0 0 .686 0l5.49-3.421c.23-.135.387-.254.669-.254h2.253c.265 0 .493.22.493.475v7.05c0 .254-.23.474-.493.474H64.44a.513.513 0 0 1-.346-.142.476.476 0 0 1-.148-.333v-4.17c0-.254-.193-.356-.421-.22l-4.03 2.44zM35.807 2.033c-.142 0-.265.102-.354.22l-1.301 1.611c-.089.118-.035.22.105.22h9.364c.298 0 .316-.102.316-.39V2.576c0-.39.018-.526-.316-.526h-7.814v-.017zM30.349 8h-2.71c-.211 0-.3-.187-.194-.356l5.879-7.32c.141-.172.336-.324.545-.324h12.62c.333 0 .545.27.545.593v6.931c0 .255-.23.475-.493.475h-2.11a.513.513 0 0 1-.347-.142.476.476 0 0 1-.147-.333v-.999c0-.289-.035-.39-.316-.39H32.567c-.212 0-.353.135-.493.304l-.035.034-.844 1.052c-.212.253-.511.474-.775.474h-.07L30.349 8zm-5.542-.001c.264 0 .563-.204.774-.475L31.23.474C31.442.22 31.337 0 31.073 0h-1.125c-.212 0-.406.136-.546.322l-5.879 7.32c-.088.17 0 .357.194.357h1.09zm-3.943 0c.265 0 .563-.204.774-.475l5.65-7.05C27.5.22 27.394 0 27.13 0h-1.602c-.21 0-.404.136-.545.322l-5.879 7.32c-.088.17 0 .357.194.357h1.566zm-6.441 0c-.211 0-.298-.187-.194-.356l5.88-7.32c.14-.17.333-.323.544-.323h2.341c.264 0 .37.22.158.475l-5.667 7.049c-.21.255-.51.475-.774.475h-2.288zm-5.368 0c-.21 0-.298-.187-.193-.356l5.86-7.32c.14-.17.335-.323.546-.323h3.15c.265 0 .37.22.159.475l-5.65 7.049c-.211.255-.51.475-.774.475H9.055zm-8.817 0c-.21 0-.299-.187-.193-.356l5.86-7.32C6.046.152 6.258 0 6.45 0h6.881c.264 0 .369.22.158.475L7.86 7.524c-.212.255-.511.475-.775.475H.238z"/></svg>