<svg width="34" height="11" fill="currentColor" xmlns="http://www.w3.org/2000/svg"><g clip-path="url(#a)" fill="#000"><path d="M5.47 7.572c-.58 0-1.082.512-1.082 1.103 0 .158.038.316.116.473.193.355.54.63.966.63.425 0 .811-.236.966-.63.077-.158.116-.316.116-.473 0-.63-.464-1.103-1.083-1.103zm22.177-1.3c-1.275 0-2.318 1.064-2.318 2.364 0 1.3 1.043 2.364 2.318 2.364 1.275 0 2.318-1.064 2.318-2.364 0-1.3-1.043-2.364-2.318-2.364zm0 3.861c-.812 0-1.468-.67-1.468-1.497 0-.827.656-1.497 1.468-1.497.811 0 1.468.67 1.468 1.497 0 .828-.657 1.497-1.468 1.497z"/><path d="M5.47 6.272c-1.275 0-2.319 1.064-2.319 2.364C3.151 9.936 4.195 11 5.47 11c1.275 0 2.319-1.064 2.319-2.364 0-1.3-1.043-2.364-2.319-2.364zm0 3.861C4.657 10.133 4 9.463 4 8.636c0-.827.657-1.497 1.468-1.497.812 0 1.469.67 1.469 1.497 0 .828-.657 1.497-1.469 1.497z"/><path d="m33.46 5.603-.387-1.773.193-.67-3.052-.512C25.037.088 19.974-.542 15.531.442c0 0-1.275.276-4.83 2.757 0 0-6.607.394-8.732 1.182l-.888.355-.889 1.34.078.945L0 7.376s.193 1.733.155 1.733l2.473.473h.077c-.077-.276-.155-.591-.155-.906 0-1.616 1.275-2.916 2.86-2.916 1.584 0 2.858 1.3 2.858 2.916 0 .315-.038.63-.154.906h.193l16.42-.04.078-.04a3.337 3.337 0 0 1-.116-.866c0-.383.073-.762.216-1.117.143-.354.354-.675.62-.946a2.85 2.85 0 0 1 .928-.632c.347-.146.72-.221 1.095-.22.376-.001.748.074 1.095.22.348.146.663.36.929.632.265.27.476.592.62.946.143.354.216.734.215 1.117 0 .197 0 .355-.038.512h.116c.54-.118 3.245-.551 3.245-.551L34 6.075s-.232-.197-.54-.472zm-31.335.512-1.314.512s.271-.946.89-1.3c.347-.197 1.506-.473 1.506-.473l-1.082 1.26zm26.118-2.443c-.695.08-1.7.158-2.898.197-6.684.198-15.03.67-15.107.67-1.7.079-4.056.237-4.056.237s1.12-.473 4.906-.67c1.894-1.615 4.29-2.797 4.29-2.797C16.574.954 18.313.797 18.39.797c.85-.079 1.739-.04 2.666.04l-.27 2.836c.54-.04 1.043-.04 1.506-.04l.27-2.6c1.97.316 3.864.946 5.1 1.695.117.078-1.39.59-2.008.787 2.125-.118 3.67.04 3.67.04s-.386.038-1.082.117z"/><path d="M27.647 9.739c.597 0 1.082-.494 1.082-1.103s-.485-1.103-1.082-1.103c-.598 0-1.082.494-1.082 1.103 0 .61.484 1.103 1.082 1.103z"/></g><defs><clipPath id="a"><path d="M0 0h34v11H0z"/></clipPath></defs></svg>