<svg width="33" height="11" fill="currentColor" xmlns="http://www.w3.org/2000/svg"><g clip-path="url(#a)" fill="#000"><path d="M5.7 6.39a2.478 2.478 0 0 0-.92.173 2.401 2.401 0 0 0-.78.5c-.222.214-.4.469-.52.749s-.181.58-.18.883c-.001.303.06.603.18.883s.298.535.52.749a2.4 2.4 0 0 0 .78.5c.292.115.604.174.92.173.315.001.628-.058.92-.174a2.4 2.4 0 0 0 .78-.499c.222-.214.399-.469.52-.749.12-.28.18-.58.18-.883A2.395 2.395 0 0 0 5.7 6.39zm0 3.818c-.862 0-1.575-.685-1.575-1.513 0-.828.713-1.513 1.575-1.513s1.575.685 1.575 1.513c0 .828-.675 1.513-1.575 1.513z"/><path d="M5.7 7.578c-.638 0-1.2.505-1.163 1.117a1.1 1.1 0 0 0 .343.788 1.193 1.193 0 0 0 1.266.245c.142-.055.27-.137.379-.24.225-.217.338-.505.338-.793a1.1 1.1 0 0 0-.343-.788 1.193 1.193 0 0 0-.82-.329zM28.238 6.39a2.478 2.478 0 0 0-.92.173 2.402 2.402 0 0 0-.78.5c-.223.214-.4.469-.52.749s-.181.58-.18.883c-.002.303.06.603.18.883s.297.535.52.749c.223.214.488.384.78.5.291.115.604.174.92.173.315.001.628-.058.92-.174a2.4 2.4 0 0 0 .779-.499c.223-.214.4-.469.52-.749s.181-.58.18-.883c0-1.26-1.087-2.305-2.4-2.305zm0 3.782c-.825 0-1.538-.648-1.538-1.44 0-.793.675-1.478 1.5-1.478.397.001.778.154 1.059.423.281.27.44.636.44 1.018.076.828-.6 1.44-1.462 1.477z"/><path d="M32.625 5.489c-.825-2.81-1.687-3.782-1.8-3.926l.3-.144-.075-.216C28.35.59 23.625-.094 17.363.123 13.95.23 9.638 3.113 9.375 3.22c-.6.252-6.675.793-8.737 2.053L.075 6.678l.112.468-.187.18.225 1.657 2.625.54a2.953 2.953 0 0 1-.112-.828c0-1.55 1.312-2.81 2.925-2.81 1.612 0 2.925 1.26 2.925 2.81 0 .288-.038.576-.113.828h16.95a2.951 2.951 0 0 1-.112-.828c0-.745.31-1.46.858-1.986a2.99 2.99 0 0 1 2.067-.824c1.538 0 2.813 1.153 2.925 2.594v.756l1.312-.396.525-2.81-.375-.54zM2.25 6.426.9 6.894s.3-.9.9-1.26c.338-.18 1.575-.433 1.575-.433L2.25 6.426zm24.038-2.522c-.038 0-6.9.252-7.125.252-.526 0-6.338.108-10.125.505-1.988.18-4.726.324-4.726.324s2.138-.504 4.726-.72c1.687-.973 5.137-2.882 7.687-3.314C17.25.879 18.9.843 18.9.843l-.45 2.954c.263 0 1.05-.036 1.163-.036l.45-2.954c2.175 0 3.712.036 5.288.252l.787 2.485h.825l-.712-2.269c1.8.36 3.675 1.44 4.762 2.522-.038-.037-4.013.143-4.725.107z"/><path d="M28.238 7.614c-.638.036-1.125.505-1.125 1.08 0 .577.487 1.081 1.125 1.081.6 0 1.124-.504 1.124-1.08 0-.576-.524-1.08-1.124-1.08z"/></g><defs><clipPath id="a"><path d="M0 0h33v11H0z"/></clipPath></defs></svg>