<svg width="81" height="9" fill="currentColor" xmlns="http://www.w3.org/2000/svg"><path d="M41.31 1.384h-3.402v2.337h3.402c.805 0 1.458-.523 1.458-1.169 0-.645-.653-1.168-1.458-1.168zm-22.842.426-2.161 3.987h4.323l-2.162-3.986zm34.02 0-2.161 3.987h4.323L52.488 1.81zM42.12 4.932h-4.212v2.683h4.212c.895 0 1.62-.6 1.62-1.342 0-.74-.725-1.341-1.62-1.341zM1.787.172l3.721 3.796L9.229.173h1.787v8.654H9.113V2.33L5.508 6.008 1.904 2.331v6.496H0V.173h1.787zm23.809 0 3.24 3.771 3.241-3.77h2.071L29.83 5.199v3.628h-1.985V5.199L23.524.173h2.072zm47.304 0v3.549h6.156V.173H81v8.654h-1.944V4.932H72.9v3.895h-1.944V.173H72.9zm-53.328 0 4.787 8.655h-2.087l-.985-1.818H15.65l-.986 1.818h-2.086L17.365.173h2.207zm22.062 0c1.7 0 3.078 1.125 3.078 2.51 0 .46-.151.89-.416 1.261.84.485 1.388 1.29 1.388 2.201 0 1.45-1.39 2.633-3.128 2.681l-.112.002h-6.48V.173h5.67zm11.958 0 4.787 8.655h-2.087l-.985-1.818H49.67l-.986 1.818h-2.086L51.384.173h2.208zM64.962 0c1.43 0 2.763.254 3.888.692v1.479c-.997-.593-2.37-.96-3.888-.96-2.282 0-4.131 1.473-4.131 3.289s1.85 3.288 4.13 3.288c1.518 0 2.892-.366 3.889-.959v1.479C67.725 8.746 66.39 9 64.962 9c-3.4 0-6.156-2.014-6.156-4.5S61.562 0 64.962 0z"/></svg>